<mxfile host="app.diagrams.net" agent="Mozilla/5.0 (Windows NT 10.0; Win64; x64) AppleWebKit/537.36 (KHTML, like Gecko) Chrome/127.0.0.0 Safari/537.36" version="24.7.7">
  <diagram name="Page-1" id="ricbQYloURxBvvx5782r">
    <mxGraphModel dx="779" dy="1097" grid="1" gridSize="10" guides="1" tooltips="1" connect="1" arrows="1" fold="1" page="1" pageScale="1" pageWidth="850" pageHeight="1100" math="0" shadow="0">
      <root>
        <mxCell id="0" />
        <mxCell id="1" parent="0" />
        <mxCell id="9KK1NZxKThgLF5jbdS7r-1" value="&lt;div&gt;new type&lt;/div&gt;rvalue reference&lt;div&gt;Foo&amp;amp;&amp;amp; t;&lt;/div&gt;" style="ellipse;whiteSpace=wrap;html=1;fontSize=16;" parent="1" vertex="1">
          <mxGeometry x="300" y="360" width="130" height="70" as="geometry" />
        </mxCell>
        <mxCell id="9KK1NZxKThgLF5jbdS7r-2" value="1) Inside function, we perform copy operation.&lt;div style=&quot;font-size: 5px;&quot;&gt;&lt;br&gt;&lt;div style=&quot;&quot;&gt;&lt;div style=&quot;font-size: 14px;&quot;&gt;2)Use rvalue reference overload to distinguish lvalue and rvalue parameter.&lt;/div&gt;&lt;div style=&quot;&quot;&gt;&lt;br&gt;&lt;/div&gt;&lt;div style=&quot;font-size: 14px;&quot;&gt;3) A typical usage is copy constructor, but not limited to this application.&lt;/div&gt;&lt;/div&gt;&lt;/div&gt;" style="rounded=1;whiteSpace=wrap;html=1;align=left;fontSize=14;" parent="1" vertex="1">
          <mxGeometry x="410" y="220" width="300" height="110" as="geometry" />
        </mxCell>
        <mxCell id="9KK1NZxKThgLF5jbdS7r-3" value="" style="endArrow=classic;html=1;rounded=0;entryX=0.5;entryY=1;entryDx=0;entryDy=0;" parent="1" target="9KK1NZxKThgLF5jbdS7r-2" edge="1">
          <mxGeometry width="50" height="50" relative="1" as="geometry">
            <mxPoint x="410" y="370" as="sourcePoint" />
            <mxPoint x="470" y="320" as="targetPoint" />
          </mxGeometry>
        </mxCell>
        <mxCell id="9KK1NZxKThgLF5jbdS7r-8" value="used as function parameter" style="edgeLabel;html=1;align=center;verticalAlign=middle;resizable=0;points=[];fontSize=14;" parent="9KK1NZxKThgLF5jbdS7r-3" vertex="1" connectable="0">
          <mxGeometry y="-3" relative="1" as="geometry">
            <mxPoint as="offset" />
          </mxGeometry>
        </mxCell>
        <mxCell id="9KK1NZxKThgLF5jbdS7r-4" value="1) &lt;font face=&quot;Courier New&quot;&gt;std::move&lt;/font&gt; return rvalue reference&lt;div style=&quot;font-size: 6px;&quot;&gt;&lt;br&gt;&lt;div style=&quot;font-size: 14px;&quot;&gt;2) For &lt;font face=&quot;Courier New&quot;&gt;std::move&lt;/font&gt;, we need to define new value category: xvalue&lt;/div&gt;&lt;/div&gt;" style="rounded=1;whiteSpace=wrap;html=1;align=left;fontSize=14;" parent="1" vertex="1">
          <mxGeometry x="90" y="240" width="300" height="70" as="geometry" />
        </mxCell>
        <mxCell id="9KK1NZxKThgLF5jbdS7r-5" value="" style="endArrow=classic;html=1;rounded=0;entryX=0.5;entryY=1;entryDx=0;entryDy=0;" parent="1" source="9KK1NZxKThgLF5jbdS7r-1" target="9KK1NZxKThgLF5jbdS7r-4" edge="1">
          <mxGeometry width="50" height="50" relative="1" as="geometry">
            <mxPoint x="200" y="400" as="sourcePoint" />
            <mxPoint x="250" y="350" as="targetPoint" />
          </mxGeometry>
        </mxCell>
        <mxCell id="9KK1NZxKThgLF5jbdS7r-9" value="used as function return&amp;nbsp;" style="edgeLabel;html=1;align=center;verticalAlign=middle;resizable=0;points=[];fontSize=14;" parent="9KK1NZxKThgLF5jbdS7r-5" vertex="1" connectable="0">
          <mxGeometry x="-0.2834" y="-1" relative="1" as="geometry">
            <mxPoint as="offset" />
          </mxGeometry>
        </mxCell>
        <mxCell id="9KK1NZxKThgLF5jbdS7r-6" value="&lt;div&gt;&lt;br&gt;&lt;/div&gt;&lt;div&gt;1) named rvalue reference is lvalue, unnamed rvalue reference is rvalue.&lt;div style=&quot;font-size: 6px;&quot;&gt;&lt;br&gt;&lt;div style=&quot;font-size: 14px;&quot;&gt;2)&amp;nbsp;&lt;span style=&quot;background-color: initial; font-size: 13px;&quot;&gt;An examples here is move constructor in derived class:&lt;/span&gt;&lt;/div&gt;&lt;div style=&quot;font-size: 13px;&quot;&gt;&lt;font style=&quot;font-size: 14px;&quot; face=&quot;Courier New&quot;&gt;Derived(Derived&amp;amp;&amp;amp; rhs) : Base(std::move(rhs))&lt;/font&gt;&lt;/div&gt;&lt;/div&gt;&lt;/div&gt;&lt;div&gt;&lt;br&gt;&lt;/div&gt;" style="rounded=1;whiteSpace=wrap;html=1;fontSize=14;align=left;" parent="1" vertex="1">
          <mxGeometry x="117" y="468" width="507.5" height="70" as="geometry" />
        </mxCell>
        <mxCell id="9KK1NZxKThgLF5jbdS7r-7" value="" style="endArrow=classic;html=1;rounded=0;entryX=0.5;entryY=0;entryDx=0;entryDy=0;" parent="1" target="9KK1NZxKThgLF5jbdS7r-6" edge="1">
          <mxGeometry width="50" height="50" relative="1" as="geometry">
            <mxPoint x="370" y="430" as="sourcePoint" />
            <mxPoint x="420" y="380" as="targetPoint" />
          </mxGeometry>
        </mxCell>
        <mxCell id="9KK1NZxKThgLF5jbdS7r-10" value="used inside function as parameter" style="edgeLabel;html=1;align=center;verticalAlign=middle;resizable=0;points=[];fontSize=14;" parent="9KK1NZxKThgLF5jbdS7r-7" vertex="1" connectable="0">
          <mxGeometry x="-0.1972" y="1" relative="1" as="geometry">
            <mxPoint as="offset" />
          </mxGeometry>
        </mxCell>
      </root>
    </mxGraphModel>
  </diagram>
</mxfile>
